<svg width="1920" height="2461" viewBox="0 0 1920 2461" fill="none" xmlns="http://www.w3.org/2000/svg">
<path d="M635.635 920.83C706.052 865.799 808.962 839.263 972.084 877.497C988.192 881.27 1004.83 885.564 1020.93 889.727C1130.14 917.929 1243.07 947.081 1328.35 854.99C1445.66 728.341 1555.66 642.155 1664.61 591.512C1804.13 526.661 1943.76 521.133 2079.62 575.084L2077.96 579.275C1837.86 483.933 1593.74 575.118 1331.65 858.054C1244.49 952.171 1130.28 922.627 1019.8 894.09C1003.73 889.944 987.106 885.646 971.053 881.894C643.203 805.03 561.135 993.05 495.173 1144.11C481.057 1176.46 467.718 1207 452.85 1232.95C325.633 1558.24 130.388 1604.44 -58.4226 1649.12C-268.476 1698.84 -466.885 1745.8 -537.102 2189.26L-541.561 2188.56C-470.855 1742.1 -271.016 1694.81 -59.4653 1644.73C128.21 1600.31 322.281 1554.39 448.786 1231C463.671 1204.98 476.962 1174.53 491.035 1142.3C524.886 1064.79 562.949 977.635 635.635 920.83Z" fill="#00758A" fill-opacity="0.23"/>
<path d="M595.883 942.93C664.023 889.678 763.842 863.425 922.061 898.079C943.436 902.762 965.322 908.326 986.484 913.696C1097.76 941.967 1212.8 971.185 1297.12 882.26C1303.92 875.131 1310.72 867.873 1317.55 860.482C1409.24 761.37 1499.94 666.69 1601.46 597.68C1696.11 533.334 1848.31 469.87 2035.89 532.969L2034.58 536.856C1848.59 474.307 1697.64 537.262 1603.76 601.097C1502.61 669.846 1412.08 764.363 1320.55 863.288C1313.72 870.698 1306.9 877.968 1300.08 885.11C1214.11 975.77 1097.88 946.25 985.467 917.688C964.333 912.323 942.481 906.769 921.175 902.109C600.171 831.799 521.885 1015.01 458.966 1162.23C446.312 1191.84 434.358 1219.81 421.11 1244.45C321.604 1502.84 175.951 1584.32 33.4 1633.86C2.21986 1644.7 -29.3518 1654.14 -59.8813 1663.27C-256.385 1722.04 -441.996 1777.58 -500.588 2197.82L-504.65 2197.25C-471.827 1961.85 -399.346 1840.15 -307.441 1768.33C-234.25 1711.13 -148.742 1685.57 -61.0591 1659.34C-30.5735 1650.22 0.954504 1640.79 32.0592 1629.99C173.679 1580.78 318.386 1499.81 417.394 1242.75C430.665 1218.04 442.58 1190.15 455.195 1160.62C487.73 1084.49 524.348 998.836 595.883 942.93Z" fill="#00758A" fill-opacity="0.23"/>
<path d="M556.361 964.559C622.239 913.074 718.937 887.229 872.058 918.671C898.936 924.193 926.117 931.027 952.42 937.633C1070.58 967.341 1182.22 995.394 1265.9 909.546C1273.65 901.6 1280.62 894.163 1287.2 886.813C1313.16 857.949 1338.72 828.486 1363.43 800.003C1428.35 725.168 1489.66 654.485 1556.97 594.904C1679.9 485.993 1838.55 448.132 1992.18 490.9L1991.19 494.455C1836.54 451.412 1683.13 488.092 1559.4 597.661C1492.27 657.086 1431.03 727.677 1366.2 802.416C1341.48 830.92 1315.92 860.389 1289.93 889.272C1283.32 896.66 1276.3 904.134 1268.52 912.119C1183.32 999.461 1070.72 971.183 951.505 941.204C925.257 934.605 898.105 927.774 871.301 922.282C731.377 893.55 627.03 909.85 552.246 972.025C487.056 1026.26 452.905 1108.25 422.766 1180.59C411.576 1207.44 401.011 1232.81 389.375 1255.92C296.152 1502.36 160.457 1587.69 27.7144 1643.15C-1.83529 1655.51 -31.6696 1666.52 -60.511 1677.16C-243.836 1744.83 -417.006 1808.75 -464.054 2206.35L-467.72 2205.91C-446.123 2023.43 -398.33 1899.49 -317.286 1815.86C-245.113 1741.36 -156.059 1708.49 -61.7879 1673.69C-32.9763 1663.06 -3.17969 1652.06 26.2948 1639.75C158.263 1584.6 293.196 1499.75 386.003 1254.43C397.653 1231.25 408.204 1205.95 419.365 1179.16C450.614 1104.16 485.828 1019.67 556.361 964.559Z" fill="#00758A" fill-opacity="0.23"/>
<path d="M516.732 984.963C588.928 928.554 688.94 913.61 822.055 939.262C854.786 945.567 887.45 953.751 919.042 961.669C1038.67 991.628 1151.67 1019.98 1234.65 936.843C1242.68 928.803 1249.94 921.038 1256.84 913.136C1304.42 858.849 1347.29 802.168 1388.76 747.344C1430.54 692.082 1470.02 639.892 1512.53 592.085C1624.26 466.424 1787.24 412.867 1948.49 448.827L1947.78 452.023C1787.7 416.328 1625.9 469.504 1514.98 594.259C1472.56 641.97 1433.13 694.109 1391.37 749.311C1349.88 804.181 1306.97 860.915 1259.31 915.285C1252.37 923.246 1245.07 931.048 1236.97 939.151C1152.71 1023.57 1038.8 995.042 918.247 964.841C886.703 956.937 854.073 948.764 821.432 942.477C514.315 883.297 446.441 1051.22 386.549 1199.37C376.84 1223.39 367.664 1246.08 357.635 1267.42C270.434 1502.71 144.794 1591.55 22.0111 1652.47C-5.5877 1666.17 -33.3613 1678.62 -60.221 1690.64C-238.234 1770.4 -391.958 1839.28 -427.538 2214.9L-430.805 2214.58C-414.476 2042.15 -372.48 1922.84 -298.653 1839.11C-232.723 1764.33 -149.585 1727.08 -61.5625 1687.64C-34.7326 1675.63 -6.989 1663.19 20.5487 1649.53C142.733 1588.9 267.749 1500.49 354.616 1266.14C364.657 1244.75 373.814 1222.1 383.504 1198.12C412.47 1126.45 445.31 1045.22 508.845 991.354C511.432 989.193 514.068 987.044 516.732 984.963Z" fill="#00758A" fill-opacity="0.23"/>
<path d="M477.508 1005.32C538.572 957.595 628.551 933.903 772.052 959.854C810.92 966.884 849.181 976.482 886.186 985.755C1012.23 1017.37 1121.11 1044.71 1203.4 964.125C1211.74 955.973 1219.28 947.895 1226.49 939.439C1288.25 867.259 1337.89 789.259 1385.9 713.83C1413.73 670.106 1440.01 628.807 1468.14 589.23C1517.45 519.824 1583.61 466.243 1659.44 434.267C1736 401.989 1820.85 392.479 1904.82 406.755L1904.34 409.581C1736.46 381.051 1570.22 450.522 1470.49 590.885C1442.4 630.404 1416.14 671.677 1388.33 715.368C1340.28 790.884 1290.58 868.969 1228.68 941.29C1221.43 949.811 1213.82 957.952 1205.42 966.176C1121.96 1047.82 1007.1 1019.04 885.495 988.541C848.54 979.267 810.328 969.682 771.549 962.67C471.335 908.377 407.042 1073.23 350.311 1218.67C342.088 1239.76 334.314 1259.68 325.887 1278.94C244.402 1504.1 128.927 1596.03 16.2766 1661.81C-8.98693 1676.56 -34.3346 1690.2 -58.857 1703.38C-224.135 1792.28 -366.887 1869.04 -391.018 2223.47L-393.88 2223.28C-377.34 1980.31 -305.267 1867.22 -208.413 1791.53C-163.348 1756.32 -112.937 1729.22 -60.2212 1700.86C-35.7286 1687.69 -10.4046 1674.07 14.8213 1659.33C126.997 1593.82 242.006 1502.27 323.21 1277.88C331.648 1258.59 339.411 1238.7 347.624 1217.64C377.659 1140.63 409.826 1058.21 477.508 1005.32Z" fill="#00758A" fill-opacity="0.23"/>
<path d="M438.017 1025.88C504.209 974.165 597.335 959.308 722.057 980.439C767.365 988.11 811.315 999.19 853.819 1009.91C980.822 1041.94 1090.51 1069.56 1172.15 991.422C1180.68 983.258 1188.76 974.617 1196.14 965.741C1267.44 880.534 1317.73 784.932 1366.38 692.484C1385.82 655.53 1404.17 620.631 1423.81 586.338C1514.33 428.252 1681.92 343.323 1861.18 364.701L1860.89 367.137C1682.62 345.874 1515.96 430.34 1425.95 587.562C1406.34 621.809 1387.98 656.694 1368.55 693.627C1319.85 786.197 1269.5 881.912 1198.04 967.314C1190.6 976.261 1182.46 984.965 1173.87 993.192C1091.24 1072.28 980.937 1044.49 853.228 1012.29C810.764 1001.59 766.863 990.52 721.653 982.862C590.44 960.635 494.51 978.367 428.358 1037.14C369.996 1088.97 341.557 1165.04 314.046 1238.61C307.609 1255.82 300.965 1273.61 294.125 1290.46C232.627 1465.27 150.464 1575.6 10.516 1671.14C-11.987 1686.5 -34.4807 1700.91 -56.2396 1714.85C-209.494 1813.05 -341.857 1897.86 -354.487 2232.02L-356.948 2231.93C-344.271 1896.46 -211.4 1811.34 -57.5668 1712.78C-35.8158 1698.85 -13.3378 1684.44 9.13356 1669.11C148.61 1573.87 230.506 1463.92 291.831 1289.58C298.681 1272.72 305.323 1254.94 311.751 1237.75C339.368 1163.9 367.913 1087.53 426.731 1035.3C430.401 1032.04 434.164 1028.89 438.017 1025.88Z" fill="#00758A" fill-opacity="0.23"/>
<path d="M399.016 1045.58C455.397 1001.53 538.793 979.935 672.076 1001.03C724.118 1009.26 773.846 1021.9 821.929 1034.13C949.627 1066.59 1059.89 1094.62 1140.91 1018.71C1149.76 1010.43 1158.13 1001.45 1165.8 992.031C1243.72 896.922 1291.3 786.247 1337.3 679.211C1350.94 647.474 1365.05 614.653 1379.51 583.401C1419.52 496.938 1482.78 426.901 1562.44 380.876C1639.38 336.426 1727.59 316.286 1817.55 322.649L1817.4 324.69C1631.57 311.56 1460.42 413.448 1381.38 584.264C1366.92 615.496 1352.82 648.303 1339.19 680.02C1293.13 787.191 1245.5 897.995 1167.39 993.324C1159.67 1002.81 1151.23 1011.86 1142.32 1020.2C1060.49 1096.89 949.715 1068.72 821.43 1036.11C773.381 1023.89 723.702 1011.26 671.757 1003.04C385.088 957.668 330.554 1111.04 277.801 1259.36C272.806 1273.42 267.638 1287.95 262.368 1301.98C203.01 1476.55 125.918 1589.72 4.70917 1680.48C-10.1106 1691.58 -24.9065 1702.37 -39.211 1712.81C-194.391 1826.04 -316.964 1915.49 -317.981 2240.59L-320.032 2240.58C-319.567 2091.07 -293.181 1981.34 -237.001 1895.29C-186.262 1817.57 -115.422 1765.88 -40.4179 1711.15C-26.1213 1700.71 -11.3394 1689.92 3.47857 1678.84C124.307 1588.34 201.212 1475.46 260.43 1301.29C265.694 1287.25 270.862 1272.72 275.855 1258.68C304.377 1178.5 333.422 1096.84 399.016 1045.58Z" fill="#00758A" fill-opacity="0.23"/>
<path d="M360.046 1065.56C385.805 1045.43 415.713 1031.56 450.903 1023.34C498.489 1012.22 554.489 1011.67 622.095 1021.61C681.162 1030.31 736.751 1044.59 790.508 1058.42C918.652 1091.37 1029.32 1119.8 1109.67 1046.02C1118.83 1037.6 1127.51 1028.28 1135.48 1018.32C1218.21 915.347 1261.25 791.377 1302.86 671.486C1313.3 641.414 1324.1 610.324 1335.26 580.426C1370.67 485.54 1432.44 407.271 1513.85 354.123C1590.96 303.774 1680.9 278.347 1773.96 280.587L1773.92 282.228C1577.87 277.517 1406.28 394.791 1336.8 581C1325.65 610.878 1314.86 641.961 1304.42 672.019C1262.75 792.039 1219.67 916.147 1136.76 1019.35C1128.75 1029.37 1120.01 1038.74 1110.79 1047.22C1029.82 1121.66 918.722 1093.06 790.114 1060.01C736.397 1046.2 680.85 1031.93 621.867 1023.24C496.097 1004.73 405.723 1023.34 345.65 1080.11C291.922 1130.87 266.322 1207.27 241.573 1281.15C238.01 1291.77 234.33 1302.77 230.616 1313.53C177.53 1476.29 108.239 1588.83 -1.06121 1689.83C-16.3294 1703.94 -31.5409 1717.59 -46.2569 1730.8C-183.813 1854.26 -292.466 1951.79 -281.448 2249.18L-283.088 2249.24C-288.159 2112.51 -268.16 2008.9 -220.151 1923.19C-176.759 1845.72 -113.902 1789.31 -47.3533 1729.57C-32.6453 1716.37 -17.4417 1702.73 -2.1752 1688.63C106.907 1587.84 176.06 1475.5 229.055 1313.01C232.771 1302.24 236.449 1291.25 240.012 1280.63C264.828 1206.56 290.488 1129.96 344.521 1078.92C349.518 1074.19 354.695 1069.74 360.046 1065.56Z" fill="#00758A" fill-opacity="0.23"/>
<path d="M320.932 1085.31C344.934 1066.55 372.853 1053.45 405.693 1045.45C451.548 1034.28 505.978 1033.23 572.118 1042.22C638.511 1051.25 700.04 1067.29 759.548 1082.78C887.895 1116.22 998.817 1145.08 1078.41 1073.33C1087.9 1064.79 1096.89 1055.13 1105.14 1044.63C1191.53 935.098 1229.08 799.12 1265.42 667.623C1273.63 637.905 1282.12 607.173 1291 577.444C1321.84 474.225 1382.08 387.766 1465.17 327.395C1541.36 272.067 1635.54 240.513 1730.36 238.546L1730.39 239.782C1524.24 244.048 1352.23 376.721 1292.17 577.795C1283.3 607.51 1274.82 638.235 1266.61 667.947C1230.26 799.563 1192.65 935.656 1106.11 1045.39C1097.82 1055.95 1088.78 1065.65 1079.24 1074.25C1042.47 1107.38 997.628 1121.56 938.091 1118.96C884.492 1116.61 823.645 1100.76 759.231 1083.97C699.766 1068.48 638.271 1052.45 571.948 1043.43C447.052 1026.45 362.013 1044.95 304.252 1101.58C252.882 1151.99 229.808 1225.92 205.382 1304.18C203.211 1311.13 201.037 1318.11 198.834 1325.09C149.016 1486 87.4923 1597.89 -6.90722 1699.2C-17.4596 1710.53 -27.9894 1721.68 -38.1745 1732.45C-166.929 1868.71 -268.629 1976.33 -244.945 2257.78L-246.176 2257.88C-269.898 1975.88 -168.033 1868.08 -39.0676 1731.6C-28.8825 1720.83 -18.3604 1709.69 -7.80803 1698.36C86.4524 1597.2 147.895 1485.45 197.654 1324.71C199.859 1317.72 202.04 1310.75 204.203 1303.81C228.677 1225.39 251.796 1151.32 303.392 1100.69C308.997 1095.19 314.841 1090.07 320.932 1085.31Z" fill="#00758A" fill-opacity="0.23"/>
<path d="M281.783 1105C335.958 1062.67 413.248 1049.26 522.151 1062.81C596.179 1072.03 666.766 1090.71 729.039 1107.18C862.638 1142.53 968.182 1170.45 1047.15 1100.64C1056.96 1091.97 1066.26 1081.97 1074.81 1070.92C1164.11 955.698 1195.74 808.69 1226.31 666.513C1232.83 636.202 1239.57 604.857 1246.76 574.407C1273.06 462.908 1331.74 368.25 1416.46 300.656C1417.69 299.688 1418.93 298.707 1420.16 297.746C1495.91 238.555 1590.41 202.643 1686.8 196.502L1686.86 197.321C1522.8 207.774 1309.3 312.849 1247.56 574.597C1240.37 605.047 1233.64 636.386 1227.12 666.683C1196.52 808.951 1164.88 956.049 1075.46 1071.41C1066.88 1082.5 1057.55 1092.54 1047.7 1101.24C1011.3 1133.42 966.825 1146.96 907.712 1143.92C854.355 1141.17 793.379 1125.04 728.823 1107.96C666.577 1091.49 596.019 1072.81 522.046 1063.6C399.644 1048.36 317.31 1067.22 262.885 1123.02C213.912 1173.24 192.249 1248.78 169.317 1328.76L167.061 1336.62C132.367 1456.52 86.5707 1584.57 -12.7673 1708.58C-17.6225 1714.64 -22.4489 1720.65 -27.2402 1726.6C-149.411 1878.64 -245.91 1998.74 -208.435 2266.37L-209.239 2266.48C-226.492 2143.26 -216.833 2043.75 -178.836 1953.3C-144.204 1870.87 -90.2945 1803.77 -27.8747 1726.08C-23.0834 1720.13 -18.2711 1714.12 -13.4018 1708.06C85.8426 1584.17 131.607 1456.22 166.277 1336.4L168.532 1328.53C191.493 1248.45 213.173 1172.82 262.3 1122.45C268.427 1116.18 274.928 1110.35 281.783 1105Z" fill="#00758A" fill-opacity="0.23"/>
<path d="M242.821 1124.38C263.695 1108.08 288.165 1096.42 316.96 1089C358.895 1078.19 409.665 1076.36 472.178 1083.39C554.148 1092.62 631.108 1113.35 699.013 1131.66C763.553 1149.05 824.522 1165.47 877.518 1168.61C936.03 1172.08 980.011 1159.16 1015.88 1127.94C1025.97 1119.2 1035.59 1108.86 1044.47 1097.2C1136.21 976.893 1161.68 819.563 1186.32 667.417C1191.44 635.844 1196.72 603.201 1202.52 571.348C1211.23 523.475 1225.53 478.275 1245.15 436.478C1226.5 476.578 1212.02 521.435 1202.92 571.426C1197.12 603.265 1191.83 635.914 1186.73 667.489C1174.4 743.635 1161.66 822.388 1140.78 895.449C1129.55 934.77 1116.92 969.396 1102.19 1001.28C1085.64 1037.06 1066.87 1068.52 1044.81 1097.46C1035.91 1109.14 1026.27 1119.5 1016.17 1128.26C980.202 1159.52 936.136 1172.49 877.502 1169.03C824.464 1165.88 763.481 1149.46 698.921 1132.06C631.037 1113.77 554.084 1093.03 472.148 1083.81C353.503 1070.46 274.496 1089.09 223.535 1142.43C175.658 1192.55 155.135 1271.69 135.289 1348.23C102.347 1472.94 65.7841 1595.06 -18.6357 1718.02C-56.9724 1773.87 -92.645 1825.82 -121.222 1879.7C-91.5372 1823.47 -54.8494 1770.04 -18.9782 1717.8C65.4066 1594.88 101.951 1472.8 134.887 1348.13C146.537 1303.19 156.497 1266.11 169.666 1232.13C184.745 1193.21 201.768 1164.63 223.226 1142.17C229.384 1135.71 235.902 1129.79 242.821 1124.38ZM1387.27 257.832C1421.33 231.222 1458.85 209.113 1499.14 191.96C1545.39 172.254 1593.88 159.634 1643.26 154.446L1643.3 154.857C1560.26 163.585 1466.22 196.219 1385.59 259.222C1382.12 261.931 1378.68 264.693 1375.27 267.509C1379.22 264.224 1383.22 260.997 1387.27 257.832ZM-151.436 1944.64C-187.451 2035.55 -200.457 2137.49 -171.917 2275.02L-172.319 2275.11C-196.474 2158.66 -192.416 2060.56 -159.537 1966.35C-157.004 1959.07 -154.298 1951.83 -151.436 1944.64Z" fill="#00758A" fill-opacity="0.23"/>
</svg>
