<svg width="1917" height="1698" viewBox="0 0 1917 1698" fill="none" xmlns="http://www.w3.org/2000/svg">
<path d="M0.0633545 1670.07C0.0633545 1662.09 0.0633545 1653.11 0.0633545 1645.13C81.2562 1590.25 164.769 1542.37 249.055 1500.47C341.073 1455.57 435.412 1421.65 528.977 1386.73C569.96 1371.77 610.17 1355.81 650.379 1335.85C696.002 1315.9 735.439 1277.99 766.369 1221.12C788.021 1181.22 804.259 1136.32 818.178 1088.44C835.963 1028.58 848.335 965.726 862.254 903.871C880.039 824.059 897.824 745.245 910.97 663.438C923.342 588.614 934.941 513.79 948.087 438.966C960.459 370.128 975.151 303.286 996.802 240.434C1034.69 130.692 1091.91 62.852 1171.56 40.9037C1207.9 30.9272 1244.25 28.9319 1280.59 29.9295C1346.32 32.9225 1412.05 38.9084 1477.77 41.9013C1582.94 46.8896 1687.33 40.9037 1790.95 12.9695C1804.09 8.97885 1818.01 4.98825 1831.16 0C1858.99 0 1886.83 0 1914.67 0C1903.84 4.98825 1893.79 9.9765 1882.96 13.9671C1781.67 52.8755 1678.05 69.8355 1574.43 73.8261C1507.93 75.8214 1442.2 73.8261 1375.7 73.8261C1326.99 73.8261 1278.27 72.8285 1229.56 81.8073C1191.67 88.7909 1155.32 102.758 1122.07 130.692C1078 167.605 1045.52 222.476 1020 288.321C996.802 349.178 980.564 414.025 967.418 481.865C953.499 556.689 941.9 631.513 927.982 704.341C907.103 810.092 884.679 914.846 863.027 1020.6C850.655 1078.46 836.736 1134.33 818.178 1187.2C791.114 1264.02 751.677 1319.89 699.868 1351.82C681.31 1362.79 661.978 1373.76 642.647 1380.75C584.652 1400.7 527.43 1418.66 469.435 1437.61C355.765 1474.53 243.642 1521.42 134.612 1585.27C88.9889 1612.2 44.9127 1642.13 0.0633545 1670.07Z" fill="white" fill-opacity="0.04"/>
<path d="M32.5403 1697C22.4878 1697 12.4354 1697 3.15618 1697C-0.710142 1697 0.0631237 1695.01 0.0631237 1692.01C1.60965 1691.02 3.15618 1691.02 4.70272 1690.02C121.466 1606.22 242.868 1542.37 368.137 1496.47C448.557 1466.54 528.977 1445.59 610.169 1424.64C644.966 1415.66 679.763 1404.69 713.014 1385.73C764.049 1356.8 804.259 1305.92 831.323 1231.1C844.469 1195.18 856.068 1157.27 864.574 1118.36C877.719 1058.51 889.318 997.649 901.69 936.792C919.476 848.001 937.261 759.21 955.046 671.417C967.418 611.558 978.244 550.701 990.616 490.842C1003.76 427.99 1022.32 369.129 1045.52 314.258C1088.05 217.486 1145.27 155.632 1219.5 131.688C1245.02 123.707 1271.31 116.723 1297.6 114.728C1348.64 110.738 1399.67 108.742 1450.71 107.745C1543.5 105.749 1637.07 101.759 1729.86 84.7987C1798.68 71.8292 1866.73 53.8715 1933.23 22.9443C1933.23 33.9185 1933.23 44.8926 1933.23 55.8668C1930.91 56.8645 1929.36 57.8621 1927.04 58.8598C1831.93 97.7681 1735.27 117.721 1637.07 127.698C1568.25 134.681 1498.65 138.672 1429.83 143.66C1380.34 147.651 1330.85 150.644 1281.36 162.615C1243.47 172.592 1207.13 187.557 1173.11 214.493C1125.94 251.406 1089.59 308.272 1060.21 375.115C1033.92 435.972 1015.36 501.817 1000.67 570.654C983.657 651.464 967.418 733.272 951.179 815.079C932.621 908.858 914.836 1002.64 897.051 1096.42C885.452 1155.28 873.08 1212.14 853.748 1266.02C829.004 1335.85 792.66 1385.73 744.718 1413.67C715.334 1430.63 685.176 1440.61 654.246 1447.59C593.158 1461.56 531.296 1473.53 470.208 1488.49C320.195 1526.4 176.368 1594.24 37.9531 1691.02C35.6333 1693.01 34.0868 1695.01 32.5403 1697Z" fill="white" fill-opacity="0.04"/>
<path d="M100.588 1697C88.2154 1697 76.6164 1697 64.2441 1697C65.7907 1696 67.3372 1694.01 69.657 1693.01C132.291 1651.11 196.473 1615.19 262.2 1585.27C381.283 1530.39 503.459 1501.46 627.181 1484.5C662.751 1479.51 698.322 1474.53 733.119 1461.56C760.956 1451.58 788.02 1435.62 811.992 1410.68C842.922 1377.75 864.574 1332.86 880.812 1280.98C897.051 1228.11 908.65 1172.24 917.929 1115.37C944.22 948.764 979.017 786.147 1013.81 623.53C1029.28 551.699 1047.84 481.864 1075.68 419.012C1102.74 356.16 1135.99 302.287 1177.75 264.376C1210.22 234.446 1245.02 216.489 1282.14 203.519C1334.72 185.562 1388.85 179.576 1442.98 173.59C1519.53 165.609 1596.08 158.625 1671.86 149.646C1737.59 141.665 1803.32 127.698 1868.27 107.745C1889.92 100.761 1911.57 92.7801 1933.23 85.7965C1933.23 95.773 1933.23 106.747 1933.23 116.724C1931.68 117.721 1930.91 117.721 1929.36 118.719C1829.61 153.637 1729.08 172.592 1627.01 185.562C1556.65 194.54 1487.05 202.522 1416.69 212.498C1372.61 218.484 1329.31 229.458 1286.78 247.416C1231.87 270.362 1182.39 309.27 1141.4 372.122C1101.97 431.981 1073.36 501.817 1051.7 579.633C1019.23 698.354 993.709 820.067 970.511 943.776C956.592 1017.6 946.54 1092.43 934.941 1167.25C926.435 1222.12 916.382 1276.99 900.917 1328.87C876.173 1411.67 836.736 1465.55 780.288 1490.49C748.584 1504.46 716.107 1510.44 682.856 1514.43C640.327 1518.42 597.797 1521.42 556.041 1526.4C414.533 1544.36 277.665 1592.25 145.437 1670.07C129.972 1678.05 115.28 1688.02 100.588 1697Z" fill="white" fill-opacity="0.04"/>
<path d="M1933.23 146.654C1933.23 156.631 1933.23 167.605 1933.23 177.581C1931.68 177.581 1930.13 178.579 1928.59 178.579C1854.35 200.527 1780.12 216.49 1705.11 228.461C1630.11 241.431 1554.33 253.403 1479.32 266.372C1429.83 275.351 1381.11 288.32 1333.17 309.271C1228.01 354.165 1150.68 451.935 1100.42 603.578C1083.41 655.456 1068.72 709.329 1055.57 764.2C1033.92 852.991 1013.04 941.781 1000.67 1035.56C990.616 1112.38 982.11 1189.2 972.057 1265.02C965.098 1318.89 957.365 1371.77 943.447 1422.65C927.981 1476.52 905.557 1520.42 869.986 1546.36C854.521 1557.33 838.283 1564.32 822.044 1569.3C784.927 1580.28 747.811 1581.28 710.694 1580.28C657.339 1579.28 603.983 1575.29 549.855 1579.28C423.039 1588.26 299.317 1627.17 180.234 1693.01C180.234 1694.01 178.687 1696.01 177.141 1697C163.222 1697 149.303 1697 136.158 1697C137.704 1696.01 139.251 1694.01 140.797 1694.01C159.356 1683.04 177.914 1672.06 196.472 1662.09C290.811 1612.2 386.696 1578.28 485.674 1561.32C544.442 1551.35 603.983 1546.36 662.751 1546.36C702.961 1546.36 743.944 1544.36 783.381 1532.39C810.445 1524.41 836.736 1511.44 859.934 1487.5C890.091 1456.57 909.423 1412.67 923.342 1362.79C938.034 1310.91 946.54 1256.04 954.272 1201.17C964.325 1129.34 974.377 1056.51 985.203 984.68C999.895 891.899 1021.55 803.108 1042.42 713.32C1055.57 656.453 1070.26 601.583 1088.82 548.707C1138.31 409.036 1211.77 318.25 1310.75 277.346C1354.82 259.389 1398.9 247.417 1443.75 240.433C1524.94 227.464 1606.14 216.49 1686.55 203.52C1753.83 193.544 1821.1 179.577 1887.6 160.621C1903.84 155.633 1918.53 151.642 1933.23 146.654Z" fill="white" fill-opacity="0.04"/>
<path d="M1933.23 206.513C1933.23 217.487 1933.23 228.461 1933.23 239.435C1931.68 239.435 1930.13 239.435 1928.59 239.435C1842.75 256.395 1757.69 273.355 1671.86 291.313C1608.45 304.282 1545.82 316.254 1483.19 331.219C1436.79 342.193 1390.39 359.153 1346.32 384.094C1258.94 432.979 1191.66 517.78 1146.04 643.483C1127.48 693.366 1112.79 745.244 1098.1 798.119C1075.67 879.927 1056.34 963.729 1045.52 1051.52C1035.46 1129.34 1030.05 1209.15 1023.87 1287.97C1019.23 1347.82 1015.36 1407.68 1006.85 1466.55C1002.21 1498.47 996.801 1529.4 987.522 1559.33C970.51 1615.19 942.673 1648.12 904.01 1659.09C890.864 1663.08 876.945 1665.08 863.026 1666.08C815.857 1669.07 768.688 1659.09 722.292 1651.11C673.577 1642.13 624.861 1634.15 576.145 1633.15C484.9 1631.16 394.428 1647.12 305.502 1681.04C293.13 1685.03 279.985 1691.02 266.839 1697C249.827 1697 233.589 1697 216.577 1697C218.123 1696 219.67 1695.01 221.216 1694.01C249.054 1682.04 276.891 1668.07 304.729 1657.1C422.265 1611.2 541.348 1596.24 661.978 1608.21C706.827 1612.2 750.903 1615.19 795.752 1618.19C820.497 1619.19 845.241 1615.2 869.986 1606.22C913.289 1590.25 944.219 1551.35 962.778 1489.49C973.603 1453.58 981.336 1415.66 985.976 1375.76C993.708 1306.92 1001.44 1239.08 1008.4 1170.24C1020 1048.53 1037.78 930.807 1067.94 816.077C1085.73 746.241 1103.51 676.406 1127.48 611.559C1163.83 513.789 1212.54 435.972 1277.5 386.09C1318.48 354.165 1361.78 334.212 1406.63 319.247C1473.91 297.299 1542.73 286.325 1610.77 273.355C1698.93 257.393 1786.31 240.433 1873.68 223.473C1893.79 218.484 1913.12 211.501 1933.23 206.513Z" fill="white" fill-opacity="0.04"/>
<path d="M1123.62 0.997651C1122.84 1.9953 1122.07 1.9953 1120.52 2.99295C1055.57 29.9295 1009.95 92.7815 979.791 183.568C961.232 239.436 948.087 298.297 938.034 358.157C924.115 441.959 910.97 525.762 898.598 609.565C884.679 705.339 864.574 799.118 842.922 891.9C828.23 952.756 815.085 1015.61 796.527 1074.47C781.061 1123.35 762.503 1170.24 737.758 1209.15C706.828 1258.04 669.711 1289.96 629.501 1312.91C581.559 1338.85 532.843 1358.8 483.354 1377.76C381.283 1418.66 279.985 1460.56 180.234 1514.43C121.466 1546.36 62.6978 1580.28 5.47621 1618.19C3.92968 1620.18 1.60989 1621.18 0.0633545 1621.18C0.0633545 1613.2 0.0633545 1604.22 0.0633545 1596.24C1.60989 1595.24 3.15642 1594.25 3.92968 1594.25C47.2325 1568.31 89.7621 1541.37 133.065 1516.43C235.909 1457.57 341.073 1409.68 447.011 1363.79C501.139 1340.84 554.495 1316.9 607.077 1284.97C637.234 1267.02 666.618 1244.07 692.136 1213.14C727.706 1170.24 753.224 1114.38 774.102 1052.52C791.887 999.646 805.806 943.777 818.951 887.909C840.603 802.111 859.934 715.315 873.08 624.529C885.452 532.745 897.824 439.964 911.743 348.18C921.022 282.335 931.848 216.49 948.087 153.638C962.779 95.7745 982.884 43.8966 1013.81 3.9906C1014.59 2.99295 1015.36 1.9953 1015.36 0C1051.7 0.997651 1088.05 0.997651 1123.62 0.997651Z" fill="white" fill-opacity="0.04"/>
<path d="M973.604 1697C975.924 1694.01 979.017 1691.02 981.337 1688.02C993.709 1674.06 1002.21 1655.1 1009.95 1634.15C1023.09 1596.24 1029.28 1554.34 1033.15 1511.44C1038.56 1446.59 1042.42 1380.75 1046.29 1315.9C1050.93 1233.09 1055.57 1150.29 1064.85 1068.48C1075.67 974.703 1096.55 885.912 1121.3 799.117C1135.99 748.237 1151.45 697.356 1170.79 649.469C1215.64 537.732 1278.27 461.911 1356.37 415.021C1405.09 386.09 1455.35 366.136 1506.38 354.165C1572.11 338.202 1638.61 325.233 1704.34 311.266C1779.35 296.301 1853.58 282.334 1928.59 267.369C1930.13 267.369 1931.68 267.369 1933.23 266.371C1933.23 276.348 1933.23 287.322 1933.23 297.299C1931.68 299.294 1930.13 300.292 1928.59 300.292C1876.78 310.268 1824.97 319.247 1772.39 329.223C1691.19 344.188 1610 358.155 1528.81 381.101C1476.23 396.066 1424.42 415.021 1374.16 444.951C1299.92 490.843 1237.29 562.674 1193.21 669.422C1153.77 764.199 1125.16 866.957 1103.51 974.703C1085.73 1062.5 1078.77 1152.29 1075.67 1244.07C1072.58 1331.86 1070.26 1419.66 1067.17 1507.45C1064.85 1571.3 1061.76 1636.15 1047.84 1698C1023.09 1697 998.348 1697 973.604 1697Z" fill="white" fill-opacity="0.04"/>
<path d="M908.65 0.999146C924.889 0.999146 941.9 0.999146 958.139 0.999146C951.953 18.9569 944.22 35.9169 938.807 53.8746C924.115 100.764 914.063 150.647 907.103 201.527C893.958 300.294 880.812 400.059 869.213 499.824C854.521 619.542 837.51 738.263 806.579 851.995C791.114 909.859 777.195 968.72 757.863 1023.59C736.212 1086.44 709.921 1142.31 674.351 1187.21C646.513 1221.13 615.583 1245.07 583.879 1266.02C531.297 1299.94 476.395 1325.88 421.493 1350.82C302.41 1405.69 184.1 1463.55 68.1107 1533.39C44.9127 1547.36 22.488 1561.32 0.0633545 1575.29C0.0633545 1566.31 0.0633545 1557.33 0.0633545 1548.36C1.60988 1547.36 3.92968 1546.36 5.47621 1545.36C50.3256 1519.42 95.175 1491.49 140.798 1466.55C233.589 1416.67 327.928 1369.78 420.72 1321.89C472.528 1294.95 524.337 1267.02 574.599 1232.1C648.833 1181.22 705.281 1099.41 741.625 985.68C754.77 945.774 766.369 903.873 777.968 862.969C798.073 791.138 816.631 717.312 827.457 640.493C842.922 536.737 852.202 430.987 863.801 325.236C875.4 215.494 883.906 105.752 908.65 0.999146Z" fill="white" fill-opacity="0.04"/>
<path d="M1933.23 329.224C1933.23 339.2 1933.23 350.174 1933.23 360.151C1891.47 366.137 1849.71 372.122 1808.73 379.106C1725.99 392.075 1643.25 407.04 1561.29 431.982C1509.48 447.944 1459.21 467.897 1410.5 497.826C1357.92 530.749 1309.97 575.643 1269.76 640.49C1242.7 684.387 1220.28 734.27 1202.49 788.143C1175.43 866.957 1151.45 946.769 1138.31 1033.56C1125.94 1114.37 1121.3 1197.18 1119.75 1279.98C1118.2 1389.73 1122.07 1498.47 1125.94 1608.21C1126.71 1637.14 1127.48 1667.07 1128.26 1696C1115.88 1696 1102.74 1696 1090.37 1696C1091.91 1639.14 1093.46 1582.27 1094.23 1525.41C1095.01 1426.64 1093.46 1327.87 1097.33 1229.1C1100.42 1151.29 1106.61 1073.47 1119.75 998.647C1135.99 905.865 1162.28 819.07 1193.21 735.267C1223.37 652.462 1263.58 582.627 1315.39 530.749C1358.69 487.85 1405.86 458.918 1455.35 437.967C1525.72 407.04 1597.63 389.083 1670.32 375.115C1746.1 360.151 1822.65 348.179 1898.43 334.212C1910.03 332.216 1921.63 331.219 1933.23 329.224Z" fill="white" fill-opacity="0.04"/>
<path d="M1189.35 1697C1179.29 1697 1169.24 1697 1159.19 1697C1155.32 1646.12 1151.46 1594.25 1148.36 1543.36C1141.4 1429.63 1137.54 1314.9 1142.95 1200.17C1146.82 1122.36 1153.78 1045.54 1171.56 971.711C1187.8 900.878 1209.45 833.038 1234.97 769.188C1266.67 689.376 1307.66 623.531 1359.46 574.646C1400.45 536.736 1443.75 509.799 1489.37 488.849C1566.7 453.931 1646.35 433.978 1725.99 420.011C1778.57 410.034 1831.93 403.051 1884.51 395.069C1900.75 393.074 1916.99 392.076 1933.23 390.081C1933.23 401.055 1933.23 412.029 1933.23 423.004C1927.04 423.004 1920.85 424.001 1913.89 424.001C1815.69 432.98 1718.26 446.947 1620.83 473.884C1562.06 489.846 1504.84 511.795 1449.16 545.715C1395.03 579.635 1345.55 624.529 1304.56 691.372C1274.4 740.256 1250.43 797.122 1229.56 855.984C1197.85 945.772 1176.2 1041.55 1168.47 1144.3C1162.28 1232.1 1162.28 1320.89 1166.15 1409.68C1170.79 1506.45 1179.29 1602.23 1189.35 1697Z" fill="white" fill-opacity="0.04"/>
<path d="M837.51 0.999146C849.109 0.999146 860.708 0.999146 871.533 0.999146C871.533 2.99445 871.533 5.9874 870.76 7.9827C864.574 61.8558 858.388 115.729 852.975 170.6C842.149 286.327 832.87 402.055 822.818 517.782C808.126 680.399 770.236 830.047 719.973 972.711C693.682 1046.54 659.659 1110.39 614.036 1157.28C581.559 1190.2 547.535 1217.14 511.965 1240.08C453.197 1278.99 392.882 1309.92 331.794 1340.84C221.217 1399.71 109.867 1459.56 0.0633545 1525.41C0.0633545 1516.43 0.0633545 1507.45 0.0633545 1498.47C1.60989 1497.47 3.92968 1497.47 5.47621 1496.48C47.2325 1472.53 88.9889 1448.59 130.745 1425.64C222.764 1374.76 315.556 1324.88 407.574 1273C457.063 1245.07 505.779 1213.14 552.175 1173.24C613.263 1121.36 662.752 1051.53 697.549 956.748C709.148 926.819 719.2 894.894 729.253 863.967C768.689 746.244 791.887 621.538 803.486 489.848C812.765 386.092 818.951 281.339 825.137 176.586C829.004 118.722 833.643 59.8605 837.51 0.999146Z" fill="white" fill-opacity="0.04"/>
<path d="M1240.38 1697C1231.87 1697 1222.59 1697 1214.09 1697C1211 1671.06 1207.13 1646.12 1204.81 1620.18C1191.66 1502.46 1182.39 1383.74 1183.93 1263.02C1184.71 1196.18 1188.57 1129.34 1198.62 1063.49C1215.64 953.752 1249.66 855.983 1292.96 766.194C1322.35 705.337 1358.69 656.453 1401.22 618.542C1432.92 589.61 1466.95 567.662 1501.74 549.704C1571.34 513.789 1643.25 493.836 1715.94 478.871C1787.85 463.906 1860.54 455.925 1934 451.934C1934 463.906 1934 474.88 1934 486.852C1841.21 488.847 1749.96 499.821 1659.49 524.763C1603.04 539.727 1547.37 560.678 1493.24 591.605C1443.75 620.537 1398.13 658.448 1358.69 712.321C1299.92 793.131 1261.26 895.889 1232.65 1007.63C1212.54 1085.44 1207.13 1169.24 1205.58 1252.05C1204.04 1341.84 1208.68 1430.63 1217.96 1518.42C1224.91 1578.28 1233.42 1638.14 1240.38 1697Z" fill="white" fill-opacity="0.04"/>
<path d="M781.061 0.999146C790.34 0.999146 799.62 0.999146 808.899 0.999146C808.899 4.98975 808.899 8.98035 808.899 13.9686C807.352 51.8793 805.806 89.79 804.259 128.698C800.393 238.44 796.527 349.179 787.247 457.923C781.061 533.745 772.555 610.564 757.09 683.392C740.078 764.202 715.334 840.023 689.043 913.849C654.246 1010.62 605.53 1086.44 545.215 1143.31C506.552 1179.22 465.569 1211.15 423.039 1236.09C346.486 1280.98 269.933 1324.88 193.38 1367.78C129.199 1404.69 64.2444 1440.61 0.0633545 1477.52C0.0633545 1468.54 0.0633545 1459.56 0.0633545 1450.59C18.6217 1440.61 37.1801 1430.63 54.9652 1420.66C153.17 1364.79 251.375 1309.92 349.579 1252.05C402.161 1221.13 453.197 1186.21 501.912 1142.31C551.401 1097.42 597.024 1043.54 632.594 972.711C658.885 920.833 678.99 863.967 699.095 805.105C726.933 725.293 746.264 640.493 756.317 549.707C769.462 437.97 774.875 326.233 777.195 213.499C778.741 142.666 780.288 71.8323 781.061 0.999146Z" fill="white" fill-opacity="0.04"/>
<path d="M1286 1697.01C1278.27 1697.01 1270.54 1697.01 1262.8 1697.01C1262.8 1696.01 1262.03 1695.01 1262.03 1694.01C1245.79 1587.26 1232.65 1479.52 1228.01 1369.78C1224.91 1302.93 1224.91 1236.09 1230.33 1169.25C1237.29 1072.48 1258.17 984.683 1289.87 900.88C1330.08 794.132 1382.66 709.331 1454.57 652.465C1501.74 615.552 1552.01 589.613 1603.81 570.658C1712.07 531.75 1822.65 516.785 1934 518.78C1934 530.752 1934 542.724 1934 554.696C1866.73 549.707 1799.45 554.696 1732.95 567.665C1664.9 580.634 1598.4 602.583 1533.45 637.501C1442.2 687.383 1368.74 772.183 1317.71 902.876C1294.51 961.737 1274.4 1021.6 1263.58 1088.44C1248.89 1180.22 1246.57 1274 1251.21 1368.78C1255.85 1475.53 1268.99 1580.28 1285.23 1684.04C1285.23 1688.03 1285.23 1693.01 1286 1697.01Z" fill="white" fill-opacity="0.04"/>
<path d="M732.346 0.999146C740.851 0.999146 749.357 0.999146 757.863 0.999146C757.863 3.9921 757.863 5.9874 757.863 8.98035C757.863 48.8864 757.863 89.79 757.863 129.696C757.863 232.454 756.317 334.214 748.584 435.975C743.171 505.81 736.212 574.648 723.066 641.491C711.467 703.345 692.136 758.216 673.577 815.082C630.275 944.777 569.187 1047.53 487.994 1121.36C439.278 1167.25 386.696 1203.17 334.114 1237.09C230.496 1301.94 124.559 1359.8 18.6217 1417.66C12.4356 1420.66 6.24948 1423.65 0.0633545 1426.64C0.0633545 1417.66 0.0633545 1408.68 0.0633545 1399.71C2.38315 1398.71 3.92968 1398.71 6.24948 1397.71C69.6572 1362.79 132.292 1328.87 195.699 1292.96C263.747 1254.05 331.021 1213.14 396.748 1163.26C446.237 1125.35 493.407 1082.45 535.163 1027.58C585.425 960.739 624.088 879.929 656.565 791.138C685.176 711.326 706.828 628.521 717.653 537.735C726.159 461.914 732.346 386.092 733.119 310.271C733.892 214.496 733.119 118.722 733.119 22.9475C732.346 14.9663 732.346 7.9827 732.346 0.999146Z" fill="white" fill-opacity="0.04"/>
<path d="M1933.23 589.611C1933.23 602.581 1933.23 615.55 1933.23 628.52C1923.95 626.524 1913.89 624.529 1904.62 623.531C1836.57 614.553 1769.29 620.538 1702.79 636.501C1644.03 650.468 1586.8 673.414 1532.67 709.329C1421.32 783.156 1349.41 913.848 1309.2 1088.44C1292.96 1160.27 1289.87 1237.09 1290.64 1312.91C1292.19 1411.68 1302.24 1508.45 1316.16 1604.22C1320.8 1635.15 1326.21 1665.08 1330.85 1696.01C1323.12 1696.01 1315.39 1696.01 1307.65 1696.01C1306.88 1692.02 1306.88 1689.02 1306.11 1685.03C1299.15 1638.14 1292.19 1592.25 1286 1545.36C1272.86 1442.6 1265.13 1337.85 1269.76 1232.1C1272.86 1140.31 1286.78 1052.52 1316.16 970.714C1344.77 890.902 1378.8 819.071 1425.19 763.202C1466.17 713.32 1512.57 678.402 1562.06 653.461C1671.86 597.593 1785.53 577.64 1900.75 583.625C1910.8 586.618 1922.4 588.614 1933.23 589.611Z" fill="white" fill-opacity="0.04"/>
<path d="M1933.23 968.718C1933.23 988.671 1933.23 1008.62 1933.23 1028.58C1920.08 1018.6 1906.93 1009.62 1893.79 999.645C1838.89 959.739 1780.89 942.779 1720.58 952.756C1570.56 977.697 1475.45 1176.23 1469.27 1357.8C1466.95 1424.64 1469.27 1491.49 1476.23 1558.33C1480.87 1605.22 1487.05 1651.11 1492.46 1697C1484.73 1697 1477.77 1697 1470.04 1697C1466.17 1666.08 1461.53 1634.15 1457.67 1603.22C1447.62 1523.41 1440.66 1443.6 1442.2 1362.79C1445.3 1194.19 1493.24 1063.5 1582.94 974.704C1678.05 879.927 1780.89 872.944 1886.06 934.798C1903.07 944.775 1917.76 956.746 1933.23 968.718Z" fill="white" fill-opacity="0.04"/>
<path d="M1933.23 755.22C1933.23 773.178 1933.23 791.136 1933.23 809.093C1905.39 792.133 1876.78 779.164 1846.62 773.178C1776.25 758.213 1706.66 771.183 1638.61 801.112C1531.13 848.999 1453.03 951.757 1404.31 1109.39C1384.21 1173.24 1377.25 1242.07 1375.7 1312.91C1374.16 1388.73 1379.57 1463.55 1388.85 1537.38C1395.81 1591.25 1403.54 1644.13 1411.27 1698C1404.31 1698 1397.35 1698 1390.39 1698C1386.53 1676.05 1383.43 1654.1 1379.57 1632.16C1364.88 1536.38 1353.28 1438.61 1352.5 1339.84C1351.73 1274 1354.05 1207.16 1367.97 1144.3C1401.22 994.656 1461.53 879.927 1553.55 810.091C1644.8 740.255 1742.23 717.31 1843.53 728.284C1874.46 731.277 1903.84 740.255 1933.23 755.22Z" fill="white" fill-opacity="0.04"/>
<path d="M1933.23 856.981C1933.23 875.936 1933.23 895.889 1933.23 914.845C1859.77 856.981 1782.44 838.026 1701.25 859.974C1620.83 880.925 1552.01 935.795 1497.88 1033.57C1456.12 1110.38 1428.28 1197.18 1422.1 1298.94C1418.23 1361.79 1420.55 1424.64 1425.19 1487.5C1430.6 1558.33 1440.66 1628.16 1450.71 1697C1443.75 1697 1436.79 1697 1429.83 1697C1414.36 1601.23 1401.22 1505.45 1397.35 1406.69C1394.26 1341.84 1395.03 1275.99 1405.86 1212.14C1427.51 1084.45 1474.68 983.683 1544.27 908.859C1589.9 859.974 1640.93 832.04 1695.06 817.075C1777.03 793.131 1856.67 804.106 1933.23 856.981Z" fill="white" fill-opacity="0.04"/>
<path d="M1371.06 1697C1363.33 1697 1356.37 1697 1348.64 1697C1343.23 1661.09 1337.04 1625.17 1332.4 1588.26C1318.48 1491.49 1309.2 1393.72 1309.97 1293.95C1310.75 1220.13 1315.39 1146.3 1333.95 1077.46C1376.48 916.84 1447.62 798.119 1552.01 731.277C1605.36 697.356 1661.04 676.406 1718.26 663.436C1781.67 649.469 1845.85 646.476 1909.26 659.446C1916.99 661.441 1924.72 662.439 1932.45 664.434C1932.45 679.399 1932.45 694.363 1932.45 710.326C1922.4 707.333 1913.12 703.342 1903.07 701.347C1848.17 686.382 1792.49 687.38 1736.82 696.359C1673.41 707.333 1612.32 729.281 1554.33 770.185C1455.35 839.023 1389.62 954.75 1350.96 1110.38C1334.72 1176.23 1330.85 1247.06 1330.85 1316.9C1330.85 1409.68 1340.13 1501.46 1353.28 1592.25C1360.24 1627.17 1365.65 1662.08 1371.06 1697Z" fill="white" fill-opacity="0.04"/>
<path d="M689.043 0.999146C696.002 0.999146 703.735 0.999146 710.694 0.999146C711.467 37.9122 713.014 75.8229 713.787 112.736C715.334 210.506 716.107 307.278 709.921 404.05C706.828 458.921 700.642 512.794 693.682 565.669C682.083 646.479 658.885 718.31 632.594 789.143C586.198 913.849 523.564 1015.61 444.691 1090.43C406.028 1126.35 366.591 1158.27 325.608 1186.21C242.095 1244.07 156.263 1292.96 69.6572 1339.85C46.4593 1352.82 23.2613 1364.79 0.0633545 1376.76C0.0633545 1367.78 0.0633545 1358.8 0.0633545 1349.82C61.1513 1315.9 122.239 1283.98 183.327 1249.06C251.375 1210.15 317.875 1165.26 382.056 1111.38C471.755 1036.56 546.762 934.8 600.891 799.119C622.542 746.244 643.42 692.371 657.339 632.512C678.217 544.719 686.723 453.932 690.589 361.151C694.456 281.339 692.909 202.525 691.362 122.712C690.589 81.8088 689.816 41.9028 689.043 0.999146Z" fill="white" fill-opacity="0.04"/>
<path d="M1535.77 1697C1528.04 1697 1520.3 1697 1512.57 1697C1509.48 1672.06 1506.38 1646.12 1504.06 1621.18C1496.33 1550.35 1490.92 1479.52 1492.47 1407.68C1494.01 1338.85 1503.29 1273 1525.72 1212.14C1582.16 1056.51 1683.46 978.695 1796.36 1004.63C1831.16 1012.61 1864.41 1031.57 1896.88 1053.52C1909.26 1062.5 1921.63 1070.48 1934 1079.46C1934 1098.41 1934 1118.37 1934 1137.32C1915.44 1125.35 1897.66 1112.38 1879.1 1101.41C1847.39 1082.45 1815.69 1066.49 1781.67 1061.5C1705.89 1050.53 1640.16 1085.44 1588.35 1173.24C1544.27 1247.06 1521.85 1334.86 1520.3 1436.62C1519.53 1500.47 1522.62 1564.32 1528.81 1627.17C1530.36 1650.11 1532.68 1674.06 1535.77 1697Z" fill="white" fill-opacity="0.04"/>
<path d="M0.0633545 1324.88C0.0633545 1315.9 0.0633545 1305.93 0.0633545 1296.95C1.60988 1295.95 3.92968 1295.95 5.47621 1294.95C41.0464 1276 77.3899 1258.04 112.96 1238.09C187.194 1197.18 259.107 1149.29 328.701 1092.43C427.679 1010.62 509.645 899.882 569.187 751.232C598.571 679.401 624.088 604.578 636.461 519.777C645.74 454.93 651.153 390.083 652.699 324.238C655.019 236.445 652.699 149.649 650.379 61.8558C649.606 41.9028 648.833 20.9522 648.833 0.999146C655.792 0.999146 662.752 0.999146 669.711 0.999146C669.711 2.99445 669.711 5.9874 669.711 7.9827C670.484 49.884 672.031 92.783 672.804 134.684C675.124 230.459 675.897 326.233 668.938 421.01C660.432 533.744 640.327 640.493 601.664 737.265C565.32 830.047 523.564 915.845 469.435 985.68C423.039 1046.54 371.231 1093.43 316.329 1134.33C235.909 1195.19 153.17 1245.07 68.884 1289.96C46.4593 1301.94 23.2613 1312.91 0.0633545 1324.88Z" fill="white" fill-opacity="0.04"/>
<path d="M1933.23 1188.2C1933.23 1207.16 1933.23 1226.11 1933.23 1245.07C1930.13 1243.07 1927.04 1242.07 1923.95 1240.08C1891.47 1222.12 1859.77 1204.16 1825.74 1193.19C1790.95 1182.21 1755.38 1178.22 1720.58 1193.19C1655.62 1220.13 1614.64 1287.97 1589.12 1381.74C1575.98 1430.63 1573.66 1482.51 1572.89 1535.38C1572.89 1589.26 1575.98 1643.13 1579.84 1697C1572.11 1697 1563.61 1697 1555.87 1697C1554.33 1680.04 1552.78 1664.08 1551.23 1647.12C1545.82 1584.27 1541.95 1520.42 1544.27 1456.57C1546.59 1390.72 1556.65 1329.87 1579.84 1274C1623.92 1169.25 1684.24 1113.38 1765.43 1115.37C1798.68 1116.37 1831.16 1128.34 1862.86 1145.3C1886.83 1160.27 1910.03 1174.23 1933.23 1188.2Z" fill="white" fill-opacity="0.04"/>
<path d="M609.396 0.999146C616.355 0.999146 622.541 0.999146 629.501 0.999146C631.047 44.8958 632.594 88.7924 634.14 132.689C636.46 228.463 636.46 324.238 627.954 420.012C621.768 493.839 610.942 565.669 589.291 633.51C567.639 699.355 542.122 761.209 513.511 819.073C460.156 925.821 393.655 1006.63 318.648 1071.48C244.415 1135.33 165.542 1185.21 85.8952 1228.11C58.0577 1243.07 29.4469 1257.04 0.83606 1271.01C0.83606 1261.03 0.83606 1251.06 0.83606 1241.08C2.38259 1240.08 3.15585 1240.08 4.70239 1239.08C106 1193.19 203.432 1134.33 296.223 1056.51C397.521 970.715 479.487 851.995 540.575 697.359C564.546 635.505 585.425 572.653 596.25 501.82C609.396 417.019 615.582 331.221 614.809 245.424C614.035 163.616 610.942 81.8088 609.396 0.999146Z" fill="white" fill-opacity="0.04"/>
<path d="M0.0633545 1215.14C0.0633545 1204.17 0.0633545 1193.19 0.0633545 1182.22C2.38315 1181.22 4.70295 1181.22 6.24948 1180.22C92.0819 1144.31 174.821 1093.43 253.694 1027.58C358.085 939.788 442.371 818.075 504.232 660.446C535.936 579.637 559.134 492.841 568.413 398.064C575.373 320.247 577.692 241.433 576.146 163.616C575.373 108.745 573.826 54.8723 572.28 0.999146C578.466 0.999146 584.652 0.999146 591.611 0.999146C591.611 4.98975 592.385 8.98035 592.385 12.971C593.158 49.884 594.704 85.7994 595.478 121.715C597.797 213.499 597.797 305.283 590.065 396.069C583.879 464.907 573.053 531.749 553.721 594.601C494.18 781.162 407.574 926.819 291.584 1029.58C215.804 1096.42 136.158 1147.3 54.1919 1189.2C35.6336 1198.18 17.8485 1206.16 0.0633545 1215.14Z" fill="white" fill-opacity="0.04"/>
<path d="M0.0633545 1153.29C0.0633545 1141.31 0.0633545 1130.34 0.0633545 1118.37C0.83662 1118.37 1.60988 1117.37 1.60988 1117.37C74.2968 1091.43 143.891 1049.53 209.618 995.657C321.742 905.868 409.894 776.174 474.075 606.573C499.593 538.733 519.698 467.9 528.203 390.083C536.709 315.259 539.802 239.438 539.029 163.616C538.256 108.745 535.936 54.8723 534.39 0.999146C541.349 0.999146 548.308 0.999146 554.495 0.999146C554.495 3.9921 554.495 6.98505 554.495 9.978C555.268 30.9287 556.041 50.8817 556.814 71.8323C559.907 164.614 560.681 257.395 553.721 349.179C548.308 416.022 539.802 482.864 521.244 543.721C474.075 699.354 407.574 829.049 318.649 929.812C255.241 1001.64 186.42 1054.52 112.96 1098.41C76.6166 1120.36 38.7266 1138.32 0.0633545 1153.29Z" fill="white" fill-opacity="0.04"/>
<path d="M460.929 0.999146C467.889 0.999146 474.075 0.999146 481.034 0.999146C481.034 9.978 481.034 18.9569 481.808 27.9357C483.354 109.743 484.127 191.55 477.941 273.358C473.302 339.203 464.796 404.05 446.237 464.907C404.481 606.573 344.166 726.291 266.067 823.063C187.194 919.835 99.8146 984.682 0.0633545 1009.62C0.0633545 993.661 0.0633545 978.697 0.0633545 962.734C2.38315 962.734 4.70295 962.734 7.02274 961.736C58.0583 951.76 106.001 925.821 152.397 889.906C258.334 807.101 338.754 682.394 398.295 523.768C420.72 463.909 440.051 401.057 449.331 332.219C464.023 222.478 464.023 111.738 460.929 0.999146Z" fill="white" fill-opacity="0.04"/>
<path d="M0.0633545 1086.44C0.0633545 1073.47 0.0633545 1060.5 0.0633545 1047.53C3.15642 1046.54 7.02274 1046.54 10.1158 1044.54C189.513 981.69 330.248 832.042 428.452 587.618C450.104 534.742 468.662 478.874 480.261 418.017C493.407 347.184 499.593 273.358 500.366 199.532C501.139 132.689 498.819 66.8441 498.819 0.999146C505.006 0.999146 511.192 0.999146 518.151 0.999146C522.017 103.757 524.337 205.518 517.378 308.276C511.965 373.123 504.232 435.975 486.447 495.834C446.237 635.505 388.243 754.225 313.236 852.993C250.601 935.798 178.688 995.657 102.134 1039.55C68.884 1059.51 34.8603 1075.47 0.0633545 1086.44Z" fill="white" fill-opacity="0.04"/>
<path d="M0.0633545 917.84C0.0633545 899.882 0.0633545 881.924 0.0633545 863.967C7.79601 862.969 15.5287 862.969 23.2613 861.971C82.0295 850 135.385 815.082 184.1 764.202C249.828 697.359 302.41 609.566 344.94 507.806C371.231 443.956 394.429 376.116 406.801 302.29C417.627 240.435 421.493 176.586 423.039 112.736C423.813 75.8229 423.813 37.9122 423.813 0.999146C430.772 0.999146 436.958 0.999146 443.918 0.999146C443.918 3.9921 443.918 6.98505 443.918 9.978C444.691 74.8253 444.691 139.673 440.825 203.522C436.958 270.365 430.772 336.21 413.76 398.064C376.644 530.752 323.288 644.484 253.694 739.26C198.019 813.087 136.158 868.955 65.7909 899.882C44.1395 908.861 22.488 916.842 0.0633545 917.84Z" fill="white" fill-opacity="0.04"/>
<path d="M0.0633545 814.084C0.0633545 795.129 0.0633545 775.176 0.0633545 756.221C0.83662 756.221 2.38315 755.223 3.15642 755.223C63.4711 751.232 118.373 719.307 167.862 667.43C225.857 606.573 272.253 527.759 310.143 435.975C333.341 381.104 352.672 322.243 364.271 259.391C375.87 196.539 379.737 131.691 382.056 66.8441C383.603 44.8958 384.376 22.9475 384.376 0.999146C391.336 0.999146 398.295 0.999146 405.254 0.999146C405.254 3.9921 405.254 6.98505 404.481 9.978C404.481 58.8629 403.708 107.748 401.388 156.633C398.295 218.487 392.109 280.341 375.87 338.205C337.98 476.878 282.305 595.599 205.752 689.378C160.129 746.244 109.094 787.148 51.0989 805.105C34.8603 810.094 17.0752 811.091 0.0633545 814.084Z" fill="white" fill-opacity="0.04"/>
<path d="M1628.56 1697C1620.05 1697 1610.77 1697 1602.27 1697C1602.27 1692.02 1602.27 1687.03 1601.5 1682.04C1599.18 1634.15 1597.63 1586.27 1599.95 1538.38C1602.27 1479.52 1610.77 1424.65 1632.43 1374.76C1661.04 1306.92 1700.47 1263.03 1752.28 1250.06C1783.21 1242.08 1813.37 1246.07 1843.53 1257.04C1873.68 1268.01 1903.07 1281.98 1933.23 1294.95C1933.23 1312.91 1933.23 1331.86 1933.23 1349.82C1930.91 1348.82 1928.59 1348.82 1927.04 1347.83C1893.02 1333.86 1858.99 1321.89 1823.42 1317.9C1790.95 1313.91 1759.24 1318.9 1729.86 1340.84C1681.14 1377.76 1650.21 1438.61 1637.07 1520.42C1629.33 1569.31 1627.79 1618.19 1628.56 1668.07C1628.56 1678.05 1628.56 1687.03 1628.56 1697Z" fill="white" fill-opacity="0.04"/>
<path d="M342.62 0.999146C350.353 0.999146 357.312 0.999146 365.045 0.999146C363.498 31.9263 362.725 62.8535 361.178 93.7806C358.085 150.647 352.672 206.515 339.527 259.391C306.276 390.083 255.241 500.822 184.874 588.615C146.211 636.503 103.681 672.418 54.9652 688.38C37.1801 695.364 18.6217 697.359 0.0633545 701.35C0.0633545 679.401 0.0633545 658.451 0.0633545 636.503C4.70295 636.503 9.34254 636.503 13.9821 635.505C59.6048 629.519 101.361 607.571 140.024 568.662C222.764 485.857 279.212 370.13 316.329 229.461C335.661 156.633 339.527 78.8159 342.62 0.999146Z" fill="white" fill-opacity="0.04"/>
<path d="M0.0633545 578.639C0.0633545 555.693 0.0633545 533.745 0.0633545 510.799C2.38315 510.799 3.92968 510.799 6.24948 510.799C37.9534 505.81 67.3374 491.843 95.9482 469.895C137.705 436.972 173.275 391.081 202.659 335.212C248.281 250.412 281.532 154.637 293.131 42.9005C293.904 29.931 295.451 14.9663 296.997 0.999146C304.73 0.999146 313.236 0.999146 320.968 0.999146C320.968 1.9968 320.968 2.99445 320.968 3.9921C317.875 62.8535 313.236 121.715 300.09 177.583C275.346 287.325 234.363 381.104 177.914 458.921C139.251 512.794 95.9482 552.7 44.9127 569.66C30.2207 574.648 14.7554 575.646 0.0633545 578.639Z" fill="white" fill-opacity="0.04"/>
<path d="M1654.08 1697C1654.08 1646.12 1657.17 1595.24 1668.77 1546.36C1681.92 1490.49 1705.11 1445.59 1738.36 1414.67C1763.11 1391.72 1790.95 1381.75 1819.56 1379.75C1855.9 1377.75 1890.7 1386.73 1925.49 1397.71C1927.81 1398.71 1930.91 1398.71 1933.23 1399.7C1933.23 1418.66 1933.23 1438.61 1933.23 1457.57C1932.45 1457.57 1931.68 1456.57 1931.68 1456.57C1903.84 1450.58 1875.23 1445.59 1846.62 1448.59C1815.69 1451.58 1785.53 1462.55 1759.24 1490.49C1712.07 1539.37 1691.19 1611.2 1685.78 1696.01C1674.96 1697 1664.9 1697 1654.08 1697Z" fill="white" fill-opacity="0.04"/>
<path d="M0.0633545 379.109C8.56927 376.116 17.0752 374.12 25.5811 370.13C82.8027 345.189 129.199 293.311 167.089 223.475C203.432 158.628 229.723 84.8018 243.642 0.999146C253.694 0.999146 262.974 0.999146 273.026 0.999146C266.067 76.8206 246.735 146.656 221.217 211.503C187.967 291.315 146.984 358.158 92.8552 405.048C64.2444 428.991 33.3138 444.954 0.0633545 449.942C0.0633545 426.996 0.0633545 403.052 0.0633545 379.109Z" fill="white" fill-opacity="0.04"/>
<path d="M1717.48 1697C1720.58 1674.06 1725.99 1652.11 1734.5 1632.16C1762.33 1562.32 1802.54 1523.41 1854.35 1511.44C1878.32 1505.46 1903.07 1506.45 1927.04 1508.45C1929.36 1508.45 1931.68 1508.45 1933.23 1508.45C1933.23 1528.4 1933.23 1548.35 1933.23 1568.31C1910.03 1568.31 1886.83 1572.3 1864.41 1581.28C1831.15 1594.25 1802.54 1620.19 1779.35 1660.09C1773.16 1671.07 1767.75 1685.03 1762.33 1697C1747.64 1697 1732.18 1697 1717.48 1697Z" fill="white" fill-opacity="0.04"/>
<path d="M320.968 1697.01C332.567 1693.01 344.166 1688.03 355.765 1685.03C428.452 1663.08 502.686 1654.11 576.919 1658.1C626.408 1660.09 675.124 1670.07 723.839 1682.04C740.851 1686.03 758.636 1691.02 776.422 1695.01C777.968 1695.01 779.515 1696.01 781.061 1697.01C736.985 1697.01 692.909 1697.01 648.833 1697.01C647.286 1696.01 645.74 1696.01 644.193 1695.01C572.279 1681.04 500.366 1680.05 428.452 1692.02C421.493 1694.01 415.307 1696.01 409.12 1697.01C379.736 1697.01 350.352 1697.01 320.968 1697.01Z" fill="white" fill-opacity="0.04"/>
<path d="M1720.58 0.999146C1710.53 2.99445 1699.7 4.98975 1689.65 6.98505C1614.64 16.9616 1540.41 17.9592 1465.4 10.9756C1437.56 8.98035 1410.5 4.98975 1382.66 1.9968C1381.11 1.9968 1379.57 0.999146 1377.25 0.999146C1491.69 0.999146 1606.13 0.999146 1720.58 0.999146Z" fill="white" fill-opacity="0.04"/>
</svg>
