<svg width="1920" height="2251" viewBox="0 0 1920 2251" fill="none" xmlns="http://www.w3.org/2000/svg">
<path d="M1522.28 1006.38C1597.9 1054.02 1657.69 1141.88 1676.92 1308.32C1678.82 1324.75 1680.41 1341.86 1681.94 1358.42C1692.36 1470.72 1703.15 1586.86 1818.66 1635.94C1977.54 1703.47 2095.87 1777.81 2180.39 1863.19C2288.63 1972.54 2341.09 2102.06 2336.3 2248.16L2331.79 2248.01C2340.26 1989.82 2171.83 1790.96 1816.9 1640.09C1698.84 1589.92 1687.99 1472.45 1677.45 1358.83C1675.91 1342.3 1674.33 1325.21 1672.43 1308.83C1633.81 974.315 1429.11 960.718 1264.65 949.768C1229.43 947.433 1196.17 945.219 1166.72 940.008C817.575 930.381 708.022 762.292 602.082 599.742C484.213 418.908 372.876 248.099 -68.1786 332.098L-69.025 327.664C375.014 243.111 487.147 415.154 605.858 597.276C711.176 758.843 820.065 925.922 1167.18 935.524C1196.71 940.724 1229.86 942.927 1264.94 945.263C1349.34 950.885 1444.23 957.208 1522.28 1006.38Z" fill="#00758A" fill-opacity="0.2"/>
<path d="M1488.03 976.455C1561.2 1022.55 1619.69 1107.6 1640.62 1268.21C1643.45 1289.91 1645.62 1312.39 1647.73 1334.12C1658.78 1448.4 1670.22 1566.53 1782.43 1615.78C1791.44 1619.77 1800.58 1623.72 1809.84 1627.64C1934.13 1680.37 2053.92 1733.69 2153.22 1805.86C2245.8 1873.15 2357.02 1994.89 2361.13 2192.76L2357.03 2192.85C2352.94 1996.66 2242.62 1875.92 2150.78 1809.18C2051.86 1737.27 1932.28 1684.07 1808.22 1631.42C1798.93 1627.49 1789.78 1623.53 1780.75 1619.53C1666.35 1569.32 1654.8 1449.96 1643.63 1334.51C1641.52 1312.81 1639.36 1290.36 1636.53 1268.74C1594.06 942.882 1395.16 931.216 1235.34 921.831C1203.19 919.944 1172.83 918.161 1145.16 914.033C868.336 907.844 742.372 798.359 647.514 680.983C626.768 655.309 607.201 628.795 588.275 603.157C466.469 438.138 351.401 282.271 -63.8806 369.356L-64.7189 365.341C167.905 316.562 306.949 343.582 405.634 405.76C484.227 455.275 537.222 527.085 591.573 600.72C610.475 626.319 630.019 652.795 650.708 678.41C744.936 795.022 870.099 903.789 1145.51 909.96C1173.25 914.085 1203.52 915.86 1235.58 917.738C1318.23 922.589 1411.22 928.06 1488.03 976.455Z" fill="#00758A" fill-opacity="0.2"/>
<path d="M1454.31 946.584C1525.05 991.152 1582.09 1073.4 1604.32 1228.12C1608.22 1255.29 1610.99 1283.18 1613.68 1310.16C1625.71 1431.41 1637.09 1545.95 1746.19 1595.64C1756.29 1600.24 1765.65 1604.28 1774.79 1607.99C1810.74 1622.65 1847.11 1636.73 1882.28 1650.35C1974.67 1686.11 2061.93 1719.88 2140.77 1763.05C2284.86 1841.88 2374.17 1978.35 2385.92 2137.39L2382.24 2137.66C2370.41 1977.57 2283.98 1845.63 2139 1766.27C2060.37 1723.22 1973.21 1689.48 1880.95 1653.77C1845.76 1640.16 1809.38 1626.07 1773.4 1611.39C1764.21 1607.67 1754.8 1603.6 1744.66 1598.97C1633.64 1548.36 1622.14 1432.83 1610.01 1310.51C1607.33 1283.58 1604.57 1255.72 1600.67 1228.63C1580.35 1087.24 1529.7 994.569 1445.89 945.238C1372.79 902.249 1284.08 897.859 1205.81 893.98C1176.75 892.538 1149.31 891.179 1123.63 888.052C860.176 883.73 733.964 784.916 636.848 678.777C615.225 655.151 594.765 630.804 574.989 607.266C449.275 457.657 330.525 316.337 -59.5385 406.619L-60.369 403.022C118.656 361.588 251.46 364.618 357.579 412.579C452.108 455.282 513.173 527.958 577.821 604.891C597.577 628.404 618.009 652.721 639.575 676.288C736.123 781.809 861.635 880.063 1123.89 884.375C1149.64 887.494 1177.02 888.861 1206 890.296C1287.15 894.32 1378.58 898.863 1454.31 946.584Z" fill="#00758A" fill-opacity="0.2"/>
<path d="M1421.69 916.199C1499.21 965.045 1547.12 1054.1 1568.03 1188.04C1573.17 1220.97 1576.52 1254.48 1579.76 1286.89C1592.05 1409.6 1603.62 1525.52 1709.93 1575.47C1720.21 1580.31 1729.98 1584.51 1739.75 1588.33C1806.93 1614.73 1874.78 1635.89 1940.4 1656.36C2006.54 1676.98 2069.01 1696.46 2128.39 1720.28C2284.44 1782.9 2389.99 1918.13 2410.73 2082.05L2407.48 2082.46C2386.89 1919.74 2282.1 1785.49 2127.17 1723.32C2067.92 1699.55 2005.51 1680.1 1939.44 1659.49C1873.76 1639.01 1805.85 1617.83 1738.56 1591.39C1728.72 1587.55 1718.91 1583.32 1708.54 1578.44C1600.59 1527.72 1588.89 1410.87 1576.51 1287.21C1573.27 1254.86 1569.92 1221.38 1564.79 1188.54C1516.54 879.52 1335.56 872.476 1175.88 866.256C1149.99 865.248 1125.54 864.293 1102.06 862.077C851.145 859.647 725.029 771.485 626.151 676.563C603.924 655.228 582.81 633.306 562.403 612.101C427.107 471.583 310.271 350.239 -55.2268 443.874L-56.0355 440.693C111.747 397.706 238.23 396.847 342.01 437.98C434.684 474.715 497.877 540.34 564.772 609.823C585.159 631.004 606.253 652.901 628.426 674.191C726.829 768.648 852.323 856.371 1102.25 858.801C1125.77 861.013 1150.18 861.964 1176.03 862.967C1253.27 865.971 1340.82 869.384 1413.01 910.94C1415.92 912.643 1418.83 914.397 1421.69 916.199Z" fill="#00758A" fill-opacity="0.2"/>
<path d="M1389.27 886.178C1454.84 927.488 1507.58 1004.14 1531.73 1147.96C1538.27 1186.91 1542.18 1226.16 1545.98 1264.12C1558.88 1393.43 1570.01 1505.13 1673.68 1555.3C1684.18 1560.39 1694.33 1564.75 1704.73 1568.67C1793.55 1602.36 1883.75 1622.68 1970.97 1642.33C2021.53 1653.72 2069.29 1664.47 2116.05 1677.55C2198.05 1700.46 2270.86 1744.58 2326.61 1805.12C2382.89 1866.23 2420.56 1942.86 2435.54 2026.71L2432.72 2027.22C2402.75 1859.59 2281.12 1726.67 2115.29 1680.32C2068.6 1667.26 2020.87 1656.51 1970.35 1645.14C1883.02 1625.47 1792.73 1605.13 1703.73 1571.36C1693.25 1567.42 1683.02 1563.01 1672.44 1557.89C1567.36 1506.99 1555.58 1389.16 1543.12 1264.41C1539.34 1226.5 1535.43 1187.3 1528.91 1148.44C1478.4 847.562 1301.51 842.852 1145.45 838.689C1122.83 838.086 1101.46 837.511 1080.48 836.1C841.025 835.623 715.446 758.07 615.421 674.328C592.99 655.547 571.579 636.31 550.875 617.696C411.292 492.254 290.747 383.903 -50.9343 481.14L-51.7266 478.383C182.51 411.721 313.318 441.269 417.317 506.795C465.701 537.285 508.264 575.549 552.79 615.558C573.474 634.148 594.859 653.369 617.261 672.12C716.872 755.506 841.939 832.747 1080.57 833.223C1101.58 834.634 1122.92 835.209 1145.52 835.81C1228.15 838.012 1316.59 840.389 1389.27 886.178Z" fill="#00758A" fill-opacity="0.2"/>
<path d="M1356.55 855.976C1427.62 900.76 1473.11 983.364 1495.44 1107.88C1503.55 1153.11 1508 1198.21 1512.29 1241.84C1525.13 1372.19 1536.26 1484.75 1637.42 1535.13C1647.99 1540.4 1658.85 1545.07 1669.7 1549.01C1774.01 1587.27 1881 1602.24 1984.45 1616.73C2025.8 1622.52 2064.85 1627.98 2103.77 1634.86C2283.16 1666.54 2419.8 1795.5 2460.34 1971.41L2457.95 1971.96C2417.63 1797.02 2281.75 1668.78 2103.34 1637.28C2064.48 1630.41 2025.44 1624.95 1984.11 1619.17C1880.52 1604.67 1773.41 1589.67 1668.87 1551.33C1657.93 1547.36 1646.99 1542.65 1636.34 1537.34C1533.95 1486.36 1522.77 1373.16 1509.85 1242.09C1505.56 1198.51 1501.11 1153.45 1493.02 1108.32C1469.53 977.325 1420.38 893.055 1342.69 850.694C1274.17 813.316 1192.96 812.302 1114.42 811.309C1096.05 811.077 1077.06 810.846 1058.89 810.109C873.582 811.4 741.96 771.422 604.698 672.062C582.627 656.086 561.45 639.798 540.967 624.041C396.703 513.059 272.099 417.209 -46.6194 518.409L-47.3623 516.062C272.6 414.463 397.666 510.687 542.468 622.091C562.943 637.842 584.103 654.12 606.139 670.075C742.954 769.093 874.135 808.948 1058.94 807.655C1077.12 808.395 1096.1 808.629 1114.46 808.859C1193.29 809.854 1274.81 810.872 1343.87 848.541C1348.18 850.892 1352.41 853.369 1356.55 855.976Z" fill="#00758A" fill-opacity="0.2"/>
<path d="M1324.82 825.942C1385.35 864.089 1433.89 935.256 1459.15 1067.81C1469.01 1119.57 1473.94 1170.64 1478.71 1220.03C1491.38 1351.18 1502.32 1464.42 1601.17 1514.97C1611.96 1520.49 1623.24 1525.33 1634.7 1529.36C1750.57 1570.5 1870.81 1577.81 1987.1 1584.88C2021.58 1586.98 2057.24 1589.14 2091.54 1592.18C2186.44 1600.56 2273.76 1636.39 2344.02 1695.78C2411.89 1753.13 2460.69 1829.32 2485.15 1916.12L2483.18 1916.68C2432.64 1737.37 2278.85 1610.79 2091.36 1594.23C2057.08 1591.19 2021.44 1589.03 1986.98 1586.93C1870.54 1579.85 1750.16 1572.54 1634.02 1531.3C1622.48 1527.24 1611.11 1522.36 1600.24 1516.8C1500.39 1465.75 1489.41 1351.98 1476.68 1220.23C1471.92 1170.88 1466.99 1119.86 1457.15 1068.19C1402.83 783.084 1240.05 783.672 1082.63 784.227C1067.71 784.283 1052.29 784.338 1037.3 784.127C852.949 787.346 720.359 753.105 593.937 669.761C578.48 659.571 563.323 649.299 548.658 639.372C389.585 531.67 263.932 446.6 -42.3301 555.662L-43.0152 553.729C97.8346 503.569 210.018 491.264 310.005 515.007C400.306 536.452 472.925 585.619 549.81 637.675C564.467 647.597 579.621 657.855 595.064 668.048C721.113 751.121 853.359 785.288 1037.3 782.068C1052.29 782.271 1067.71 782.216 1082.62 782.163C1167.72 781.868 1254.38 781.567 1324.82 825.942Z" fill="#00758A" fill-opacity="0.2"/>
<path d="M1292.83 796.032C1320.49 813.461 1343.66 836.908 1363.31 867.241C1389.87 908.258 1409.34 960.766 1422.86 1027.75C1434.67 1086.27 1440.04 1143.42 1445.23 1198.68C1457.59 1330.41 1468.28 1444.17 1564.9 1494.81C1575.92 1500.58 1587.63 1505.6 1599.7 1509.73C1724.59 1552.73 1855.81 1551.27 1982.72 1549.86C2014.55 1549.51 2047.45 1549.15 2079.36 1549.53C2180.63 1550.73 2275.19 1582.38 2352.75 1641C2426.23 1696.52 2480.59 1772.55 2509.98 1860.87L2508.42 1861.39C2446.5 1675.31 2278.08 1553.54 2079.35 1551.17C2047.46 1550.79 2014.56 1551.16 1982.74 1551.51C1855.7 1552.91 1724.34 1554.37 1599.17 1511.28C1587.03 1507.13 1575.25 1502.09 1564.15 1496.27C1466.7 1445.28 1456.01 1331.05 1443.6 1198.85C1438.41 1143.63 1433.04 1086.53 1421.26 1028.08C1396.11 903.47 1348.02 824.725 1274.27 787.409C1208.32 754.03 1127.77 755.795 1049.87 757.508C1038.66 757.752 1027.07 758.011 1015.69 758.156C844.568 763.283 715.219 736.166 583.192 667.494C564.746 657.902 546.754 648.207 529.342 638.83C366.609 551.174 238.072 481.934 -38.0482 592.946L-38.6617 591.424C88.2906 540.378 192.555 524.135 289.453 540.305C377.037 554.92 451.389 594.978 530.123 637.384C547.527 646.756 565.51 656.445 583.943 666.04C715.699 734.578 844.817 761.631 1015.65 756.512C1027.04 756.363 1038.62 756.107 1049.83 755.864C1127.93 754.148 1208.69 752.372 1275 785.945C1281.14 789.047 1287.08 792.412 1292.83 796.032Z" fill="#00758A" fill-opacity="0.2"/>
<path d="M1261.01 765.91C1286.78 782.149 1308.56 803.985 1327.2 832.182C1353.23 871.551 1372.64 922.412 1386.56 987.694C1400.53 1053.22 1406.26 1116.55 1411.82 1177.79C1423.79 1309.88 1434.17 1424.02 1528.62 1474.64C1539.87 1480.68 1552 1485.87 1564.67 1490.08C1696.98 1534.31 1837.64 1523.63 1973.68 1513.32C2004.42 1510.99 2036.21 1508.58 2067.19 1506.87C2174.76 1500.96 2276.5 1528.38 2361.43 1586.15C2439.28 1639.12 2500.84 1717.06 2534.78 1805.62L2533.63 1806.06C2459.85 1613.52 2276.79 1496.56 2067.26 1508.09C2036.3 1509.8 2004.51 1512.21 1973.78 1514.55C1837.62 1524.88 1696.84 1535.55 1564.28 1491.25C1551.55 1487.02 1539.36 1481.8 1528.04 1475.73C1484.42 1452.34 1455.9 1414.95 1438.2 1358.04C1422.27 1306.81 1416.59 1244.19 1410.59 1177.9C1405.05 1116.7 1399.32 1053.41 1385.36 987.944C1359.08 864.67 1312.89 790.908 1240.06 755.72C1175.23 724.442 1097.85 727.748 1015.94 731.249C1008.67 731.558 1001.37 731.873 994.058 732.161C825.777 739.739 699.667 719.711 572.39 665.166C558.159 659.07 544.107 652.933 530.52 646.996C358.728 571.951 223.039 512.672 -33.7864 630.205L-34.2953 629.08C223.038 511.324 358.951 570.697 531.018 645.868C544.605 651.805 558.648 657.937 572.88 664.032C699.971 718.497 825.922 738.496 994.01 730.924C1001.33 730.634 1008.63 730.327 1015.9 730.012C1097.98 726.502 1175.5 723.192 1240.6 754.61C1247.67 758.024 1254.47 761.789 1261.01 765.91Z" fill="#00758A" fill-opacity="0.2"/>
<path d="M1229.23 735.733C1287.4 772.387 1326.17 840.579 1350.27 947.643C1366.65 1020.42 1372.96 1093.17 1378.54 1157.34C1390.48 1295.02 1399.93 1403.78 1492.35 1454.47C1503.82 1460.76 1516.38 1466.14 1529.67 1470.44C1668.32 1515.48 1817.35 1495.49 1961.49 1476.14C1992.22 1472.02 2023.99 1467.76 2055.08 1464.21C2168.9 1451.23 2277.83 1474.41 2370.11 1531.26C2371.43 1532.09 2372.78 1532.92 2374.1 1533.75C2455.43 1585.01 2521.2 1661.77 2559.6 1750.4L2558.85 1750.73C2493.5 1599.89 2322.37 1434.55 2055.17 1465.03C2024.09 1468.57 1992.32 1472.84 1961.6 1476.96C1817.37 1496.32 1668.25 1516.32 1529.43 1471.22C1516.09 1466.9 1503.49 1461.51 1491.97 1455.19C1449.36 1431.82 1421.57 1394.56 1404.43 1337.9C1388.96 1286.76 1383.5 1223.93 1377.73 1157.4C1372.16 1093.25 1365.86 1020.54 1349.49 947.813C1322.41 827.475 1276.8 756.382 1205.88 724.051C1142.05 694.962 1063.63 700.143 980.614 705.628L972.449 706.168C847.882 714.096 711.897 714.334 561.584 662.825C554.234 660.308 546.951 657.799 539.728 655.304C355.312 591.796 209.648 541.632 -29.5162 667.469L-29.8898 666.749C80.2223 608.814 177.133 584.225 275.105 589.37C364.39 594.065 445.771 622.087 540.003 654.531C547.225 657.026 554.505 659.522 561.858 662.052C712.023 713.515 847.913 713.277 972.395 705.353L980.56 704.813C1063.69 699.317 1142.2 694.123 1206.21 723.307C1214.19 726.95 1221.87 731.095 1229.23 735.733Z" fill="#00758A" fill-opacity="0.2"/>
<path d="M1197.8 705.631C1220.22 719.754 1239.47 738.836 1256.19 763.42C1280.56 799.222 1299.46 846.378 1314 907.583C1333.05 987.84 1339.59 1067.28 1345.34 1137.37C1350.82 1203.98 1356 1266.91 1370.98 1317.84C1387.52 1374.08 1414.56 1411.09 1456.08 1434.28C1467.71 1440.82 1480.7 1446.37 1494.67 1450.78C1638.93 1496.39 1795.6 1467.12 1947.1 1438.82C1978.55 1432.95 2011.05 1426.87 2042.99 1421.55C2090.98 1413.54 2138.36 1411.71 2184.33 1416.02C2140.28 1412.05 2093.17 1413.6 2043.05 1421.95C2011.13 1427.27 1978.61 1433.34 1947.18 1439.23C1871.35 1453.39 1792.93 1468.05 1717.12 1473.13C1676.31 1475.87 1639.46 1475.71 1604.47 1472.63C1565.2 1469.17 1529.24 1462.15 1494.55 1451.18C1480.54 1446.76 1467.53 1441.2 1455.87 1434.66C1414.28 1411.4 1387.17 1374.32 1370.58 1317.97C1355.59 1267 1350.41 1204.06 1344.93 1137.42C1339.18 1067.35 1332.65 987.917 1313.59 907.696C1286.01 791.533 1241.74 723.493 1174.29 693.592C1110.93 665.498 1029.51 672.97 950.779 680.195C822.279 691.402 694.989 698.324 550.71 660.499C485.189 643.322 424.224 627.338 363.855 618.679C426.81 627.585 489.51 644.024 550.808 660.099C695.025 697.91 822.271 690.983 950.73 679.786C996.962 675.54 1035.23 672.362 1071.66 673.255C1113.38 674.274 1146.04 680.621 1174.44 693.211C1182.6 696.819 1190.38 700.95 1197.8 705.631ZM2400.53 1489.3C2437.09 1512.34 2470.59 1540.17 2500.37 1572.28C2534.57 1609.13 2562.85 1650.49 2584.44 1695.19L2584.07 1695.37C2547.75 1620.18 2485.22 1542.74 2398.65 1488.19C2394.93 1485.84 2391.16 1483.54 2387.36 1481.29C2391.79 1483.88 2396.18 1486.56 2400.53 1489.3ZM292.522 612.225C194.791 609.099 94.4656 631.359 -25.2979 704.76L-25.5149 704.41C75.8857 642.274 169.577 612.89 269.352 611.949C277.062 611.868 284.792 611.963 292.522 612.225Z" fill="#00758A" fill-opacity="0.2"/>
</svg>
