<svg width="18" height="16" viewBox="0 0 18 16" fill="none" xmlns="http://www.w3.org/2000/svg">
<path d="M4.28125 0.78125C4.1875 0.5 3.78125 0.5 3.6875 0.78125L1.90625 6.25H6.03125L4.28125 0.78125ZM1 9C0.9375 9.25 1.03125 9.53125 1.25 9.6875L8.96875 15.4375L1.90625 6.25L1 9ZM6.03125 6.25L9 15.4375L11.9375 6.25H6.03125ZM16.9688 9L16.0625 6.25L9 15.4375L16.7188 9.6875C16.9375 9.53125 17.0312 9.25 16.9688 9ZM14.2812 0.78125C14.1875 0.5 13.8125 0.5 13.6875 0.78125L11.9375 6.25H16.0625L14.2812 0.78125Z" fill="black"/>
</svg>
